<svg xmlns="http://www.w3.org/2000/svg" viewBox="0 0 420 560" width="420" height="560" role="img" aria-label="Sample resume">
  <rect width="420" height="560" rx="24" fill="#fff7ed"/>
  <rect x="18" y="18" width="384" height="524" rx="18" fill="#ffffff" stroke="#fed7aa"/>
  <rect x="42" y="42" width="336" height="42" rx="14" fill="#0f172a"/>
  <rect x="58" y="54" width="116" height="10" rx="5" fill="#ffffff"/>
  <rect x="58" y="72" width="72" height="6" rx="3" fill="#fdba74"/>
  <rect x="42" y="114" width="118" height="18" rx="9" fill="#ea580c"/>
  <rect x="42" y="150" width="248" height="8" rx="4" fill="#cbd5e1"/>
  <rect x="42" y="168" width="292" height="8" rx="4" fill="#cbd5e1"/>
  <rect x="42" y="186" width="270" height="8" rx="4" fill="#cbd5e1"/>
  <rect x="42" y="236" width="142" height="18" rx="9" fill="#0f172a"/>
  <rect x="42" y="272" width="164" height="10" rx="5" fill="#cbd5e1"/>
  <rect x="42" y="292" width="208" height="10" rx="5" fill="#cbd5e1"/>
  <rect x="42" y="312" width="188" height="10" rx="5" fill="#cbd5e1"/>
  <rect x="42" y="360" width="98" height="18" rx="9" fill="#0f172a"/>
  <rect x="42" y="396" width="282" height="8" rx="4" fill="#cbd5e1"/>
  <rect x="42" y="414" width="250" height="8" rx="4" fill="#cbd5e1"/>
  <rect x="42" y="450" width="132" height="18" rx="9" fill="#1d4ed8"/>
  <rect x="42" y="486" width="192" height="8" rx="4" fill="#cbd5e1"/>
</svg>