<svg xmlns="http://www.w3.org/2000/svg" viewBox="0 0 420 560" width="420" height="560" role="img" aria-label="Sample resume">
  <rect width="420" height="560" rx="24" fill="#eff6ff"/>
  <rect x="20" y="20" width="380" height="520" rx="18" fill="#ffffff" stroke="#dbeafe"/>
  <rect x="20" y="20" width="126" height="520" rx="18" fill="#1f2937"/>
  <rect x="44" y="54" width="78" height="78" rx="16" fill="#94a3b8"/>
  <rect x="44" y="156" width="72" height="12" rx="6" fill="#ffffff" opacity="0.9"/>
  <rect x="44" y="184" width="42" height="6" rx="3" fill="#cbd5e1" opacity="0.8"/>
  <rect x="44" y="230" width="58" height="12" rx="6" fill="#ffffff" opacity="0.85"/>
  <rect x="44" y="258" width="66" height="8" rx="4" fill="#cbd5e1" opacity="0.8"/>
  <rect x="44" y="278" width="50" height="8" rx="4" fill="#cbd5e1" opacity="0.8"/>
  <rect x="168" y="56" width="152" height="16" rx="8" fill="#0f172a"/>
  <rect x="168" y="84" width="116" height="9" rx="4.5" fill="#94a3b8"/>
  <rect x="168" y="126" width="96" height="16" rx="8" fill="#0f172a"/>
  <rect x="168" y="160" width="214" height="8" rx="4" fill="#cbd5e1"/>
  <rect x="168" y="178" width="206" height="8" rx="4" fill="#cbd5e1"/>
  <rect x="168" y="196" width="184" height="8" rx="4" fill="#cbd5e1"/>
  <rect x="168" y="240" width="94" height="16" rx="8" fill="#0f172a"/>
  <rect x="168" y="274" width="210" height="8" rx="4" fill="#cbd5e1"/>
  <rect x="168" y="292" width="198" height="8" rx="4" fill="#cbd5e1"/>
  <rect x="168" y="310" width="180" height="8" rx="4" fill="#cbd5e1"/>
  <rect x="168" y="356" width="104" height="16" rx="8" fill="#0f172a"/>
  <rect x="168" y="390" width="186" height="8" rx="4" fill="#cbd5e1"/>
  <rect x="168" y="408" width="202" height="8" rx="4" fill="#cbd5e1"/>
</svg>