<svg xmlns="http://www.w3.org/2000/svg" viewBox="0 0 420 560" width="420" height="560" role="img" aria-label="Sample resume">
  <defs>
    <linearGradient id="g1" x1="0" x2="1" y1="0" y2="1">
      <stop offset="0" stop-color="#ffffff"/>
      <stop offset="1" stop-color="#f8fafc"/>
    </linearGradient>
  </defs>
  <rect width="420" height="560" rx="24" fill="#e5eef9"/>
  <rect x="22" y="22" width="376" height="516" rx="18" fill="url(#g1)" stroke="#d7e1ef"/>
  <rect x="46" y="50" width="92" height="92" rx="46" fill="#cbd5e1"/>
  <rect x="158" y="55" width="138" height="14" rx="7" fill="#0f172a"/>
  <rect x="158" y="82" width="92" height="10" rx="5" fill="#64748b"/>
  <rect x="46" y="170" width="118" height="18" rx="9" fill="#2563eb"/>
  <rect x="46" y="206" width="304" height="10" rx="5" fill="#cbd5e1"/>
  <rect x="46" y="226" width="286" height="10" rx="5" fill="#cbd5e1"/>
  <rect x="46" y="246" width="296" height="10" rx="5" fill="#cbd5e1"/>
  <rect x="46" y="292" width="146" height="18" rx="9" fill="#1e293b"/>
  <rect x="46" y="328" width="290" height="9" rx="4.5" fill="#cbd5e1"/>
  <rect x="46" y="346" width="270" height="9" rx="4.5" fill="#cbd5e1"/>
  <rect x="46" y="364" width="286" height="9" rx="4.5" fill="#cbd5e1"/>
  <rect x="46" y="410" width="110" height="18" rx="9" fill="#64748b"/>
  <rect x="46" y="446" width="260" height="9" rx="4.5" fill="#cbd5e1"/>
  <rect x="46" y="464" width="218" height="9" rx="4.5" fill="#cbd5e1"/>
</svg>